#!OML:ASF F:\VICON\USERDATA\INSTALL\rory3\rory3.ASF
:FULLY-SPECIFIED
:DEGREES
1309
root 2.80184 11.6589 -3.9412 200.637 121.25 187.198
lowerback 35.4552 -1.45849 1.34201
upperback 13.0263 -0.103667 3.17488
thorax -3.53141 0.281877 2.62229
lowerneck -13.3377 0.242985 -11
upperneck 30.5692 4.79113 -2.60679
head 12.2531 0.749246 1.6147
rclavicle 7.71285e-014 -8.74653e-014
rhumerus -39.1686 25.3735 -74.0822
rradius 113.012
rwrist 43.7531
rhand -57.876 0.458423
rfingers 7.12502
rthumb -30.1276 -27.1057
lclavicle 7.71285e-014 -8.74653e-014
lhumerus -41.7268 -22.1966 98.2978
lradius 98.083
lwrist -48.8392
lhand -58.7341 53.225
lfingers 7.12502
lthumb -30.9459 80.6368
rfemur -75.859 -29.501 0.137625
rtibia 104.115
rfoot -28.0477 5.14522
rtoes -36.2847
lfemur -89.6162 9.73514 -12.5443
ltibia 95.9661
lfoot -17.497 -23.5263
ltoes -7.88884
1310
root 2.77951 11.5927 -3.97681 199.636 120.687 186.807
lowerback 36.1557 -1.65464 1.45898
upperback 13.0228 -0.208187 3.68574
thorax -3.7736 0.226839 3.13688
lowerneck -12.9497 0.198327 -11.5255
upperneck 30.4568 4.88069 -2.82897
head 12.135 0.723022 1.62436
rclavicle 4.77083e-015 3.97569e-015
rhumerus -39.1361 25.8433 -73.3293
rradius 113.377
rwrist 43.6183
rhand -58.0156 0.398006
rfingers 7.12502
rthumb -30.2608 -27.1417
lclavicle 4.77083e-015 3.97569e-015
lhumerus -41.8131 -21.5014 98.9107
lradius 98.4316
lwrist -49.2913
lhand -58.6416 53.823
lfingers 7.12502
lthumb -30.8577 81.2515
rfemur -75.3096 -30.1657 0.039819
rtibia 104.495
rfoot -27.9738 5.79728
rtoes -35.6026
lfemur -89.6398 9.14834 -12.1194
ltibia 96.5093
lfoot -17.5165 -23.3853
ltoes -7.94084
1311
root 2.76312 11.5243 -4.00519 199.056 120.852 186.637
lowerback 36.0753 -1.78925 1.97531
upperback 13.2656 -0.246316 3.11501
thorax -3.47299 0.252231 2.27878
lowerneck -12.7647 0.212106 -10.8255
upperneck 30.4111 4.65005 -2.73332
head 12.0831 0.713484 1.51004
rclavicle -7.63333e-014 -1.38354e-013
rhumerus -39.1958 25.2688 -74.0134
rradius 113.626
rwrist 43.7809
rhand -58.255 -0.165878
rfingers 7.12502
rthumb -30.489 -27.6635
lclavicle -7.63333e-014 -1.38354e-013
lhumerus -41.6047 -21.9135 98.0475
lradius 98.7189
lwrist -49.3315
lhand -58.7233 52.5421
lfingers 7.12502
lthumb -30.9356 79.9558
rfemur -75.3769 -30.2553 -0.120282
rtibia 104.915
rfoot -27.9105 6.02892
rtoes -36.0149
lfemur -89.7169 9.3326 -12.1291
ltibia 97.0906
lfoot -17.7455 -23.2534
ltoes -8.3408
1312
root 2.74318 11.4554 -4.03345 198.243 120.948 186.33
lowerback 36.299 -1.83931 2.06452
upperback 13.4281 -0.25955 3.064
thorax -3.36978 0.257721 2.18494
lowerneck -12.6818 0.249769 -10.9817
upperneck 30.4643 4.72431 -2.68069
head 12.0815 0.735277 1.56518
rclavicle 5.64548e-014 -5.24792e-014
rhumerus -39.1221 25.5828 -73.8524
rradius 113.834
rwrist 43.6345
rhand -58.5479 -0.487401
rfingers 7.12502
rthumb -30.7684 -27.9328
lclavicle 5.64548e-014 -5.24792e-014
lhumerus -41.4574 -21.7136 97.8484
lradius 98.9994
lwrist -49.2254
lhand -58.8855 52.2304
lfingers 7.12502
lthumb -31.0902 79.6146
rfemur -75.3173 -30.3386 -0.247783
rtibia 105.364
rfoot -27.8257 6.28884
rtoes -36.4702
lfemur -89.7232 9.44869 -11.9915
ltibia 97.6701
lfoot -17.9554 -23.1363
ltoes -8.91593
1313
root 2.72465 11.3854 -4.06078 197.353 121 185.917
lowerback 36.4097 -1.8869 1.99083
upperback 13.6026 -0.309871 3.24983
thorax -3.21673 0.230123 2.43665
lowerneck -12.5156 0.296238 -11.5524
upperneck 30.3837 4.9153 -2.70402
head 12.0066 0.763954 1.67305
rclavicle -2.8625e-014 -1.11319e-014
rhumerus -38.9503 26.4541 -73.2911
rradius 114.007
rwrist 43.1414
rhand -58.8711 -0.00499182
rfingers 7.12502
rthumb -31.0765 -27.3919
lclavicle -2.8625e-014 -1.11319e-014
lhumerus -41.3267 -21.1597 97.9562
lradius 99.2975
lwrist -49.2973
lhand -58.5598 53.3113
lfingers 7.12502
lthumb -30.7798 80.7545
rfemur -75.2703 -30.4767 -0.302539
rtibia 105.82
rfoot -27.7597 6.69043
rtoes -36.3448
lfemur -89.739 9.53651 -11.7594
ltibia 98.2678
lfoot -18.1213 -23.096
ltoes -9.47921
1314
root 2.70729 11.3147 -4.08735 196.683 121.156 185.565
lowerback 36.1629 -1.73725 2.12247
upperback 13.792 -0.0961876 3.2289
thorax -2.93397 0.343107 2.2724
lowerneck -12.2595 0.160998 -11.2025
upperneck 30.3659 4.66522 -2.89591
head 11.9693 0.678016 1.50769
rclavicle 2.38542e-015 -3.57812e-014
rhumerus -38.9697 26.2715 -73.1373
rradius 114.148
rwrist 42.9185
rhand -59.0529 -0.549084
rfingers 7.12502
rthumb -31.2498 -27.9027
lclavicle 2.38542e-015 -3.57812e-014
lhumerus -41.1512 -21.5518 97.8557
lradius 99.5096
lwrist -49.2156
lhand -58.2075 54.1306
lfingers 7.12502
lthumb -30.4438 81.6366
rfemur -75.4978 -30.609 -0.264875
rtibia 106.27
rfoot -27.6369 7.0168
rtoes -36.4249
lfemur -89.9255 9.78941 -11.6017
ltibia 98.8699
lfoot -18.1498 -23.1885
ltoes -9.59033
1315
root 2.6926 11.2405 -4.11009 196.335 121.746 185.379
lowerback 35.632 -1.4283 1.66629
upperback 13.9558 0.100776 3.29779
thorax -2.5886 0.415083 2.51689
lowerneck -12.0317 0.177904 -11.477
upperneck 30.3963 4.73144 -2.88692
head 11.9317 0.683969 1.56281
rclavicle -2.62396e-014 2.78299e-014
rhumerus -38.8944 26.462 -72.8055
rradius 114.362
rwrist 42.9727
rhand -58.8121 -1.00529
rfingers 7.12502
rthumb -31.0203 -28.4029
lclavicle -2.62396e-014 2.78299e-014
lhumerus -40.9059 -21.3121 97.9305
lradius 99.5913
lwrist -49.1563
lhand -57.7512 54.5153
lfingers 7.12502
lthumb -30.0085 82.101
rfemur -76.1744 -30.3759 -0.254631
rtibia 106.744
rfoot -27.4054 7.3789
rtoes -36.1143
lfemur -90.2169 10.4988 -11.6582
ltibia 99.517
lfoot -18.2171 -23.3119
ltoes -9.26904
1316
root 2.66762 11.1801 -4.14257 195.217 121.229 185.206
lowerback 36.3828 -1.75022 2.02645
upperback 14.0648 -0.0999073 3.38663
thorax -2.71237 0.343421 2.4918
lowerneck -11.9478 0.158816 -11.564
upperneck 30.3988 4.70714 -2.85847
head 11.9153 0.669646 1.58375
rclavicle -4.92986e-014 6.59965e-014
rhumerus -38.7181 26.381 -72.4712
rradius 114.573
rwrist 43.0435
rhand -58.2301 -0.325997
rfingers 7.12502
rthumb -30.4653 -27.828
lclavicle -4.92986e-014 6.59965e-014
lhumerus -40.4067 -21.3063 97.9245
lradius 99.4382
lwrist -48.9584
lhand -57.2154 54.9953
lfingers 7.12502
lthumb -29.4972 82.6724
rfemur -75.2519 -31.0481 -0.623482
rtibia 107.041
rfoot -27.3073 7.84215
rtoes -36.0445
lfemur -89.7967 9.87402 -11.4295
ltibia 99.9222
lfoot -18.5453 -22.9032
ltoes -10.7028
1317
root 2.65488 11.1117 -4.16407 194.689 121.926 184.897
lowerback 35.8793 -1.40622 1.68223
upperback 14.2572 0.16823 3.36101
thorax -2.34738 0.457601 2.55546
lowerneck -11.8098 0.142774 -11.5522
upperneck 30.4184 4.65057 -2.81442
head 11.8953 0.653513 1.58942
rclavicle -2.78299e-014 2.06736e-014
rhumerus -38.5765 26.4127 -72.3115
rradius 114.697
rwrist 42.7847
rhand -58.1653 0.775029
rfingers 7.12502
rthumb -30.4035 -26.7384
lclavicle -2.78299e-014 2.06736e-014
lhumerus -40.0876 -21.3354 97.8897
lradius 99.506
lwrist -48.6018
lhand -56.7075 55.585
lfingers 7.12502
lthumb -29.0121 83.3466
rfemur -75.8463 -30.5457 -0.583864
rtibia 107.409
rfoot -27.1318 7.97154
rtoes -35.9798
lfemur -89.8567 10.7042 -11.505
ltibia 100.435
lfoot -19.1159 -22.6032
ltoes -12.4465
1318
root 2.61595 11.1038 -4.21163 193.717 121.645 184.632
lowerback 36.2644 -1.56548 2.07501
upperback 14.3164 0.13573 3.35206
thorax -2.40574 0.467311 2.35257
lowerneck -11.6893 0.0644917 -11.191
upperneck 30.5762 4.49865 -2.93999
head 11.9479 0.60756 1.46381
rclavicle -1.82882e-014 6.04305e-014
rhumerus -38.6525 26.1865 -72.4617
rradius 114.707
rwrist 42.5721
rhand -58.4293 0.72465
rfingers 7.12502
rthumb -30.6553 -26.7419
lclavicle -1.82882e-014 6.04305e-014
lhumerus -39.984 -21.8064 97.8274
lradius 99.8479
lwrist -48.0696
lhand -55.9697 55.0622
lfingers 7.12502
lthumb -28.3072 82.9429
rfemur -75.0681 -30.7191 -0.744368
rtibia 107.391
rfoot -27.0503 8.10324
rtoes -35.8448
lfemur -89.4107 10.2168 -11.1844
ltibia 100.557
lfoot -18.6381 -22.7145
ltoes -11.2419
1319
root 2.59067 11.055 -4.24048 192.896 121.6 184.422
lowerback 36.3435 -1.70737 2.11612
upperback 14.4118 -0.00833774 3.38845
thorax -2.32367 0.402825 2.41796
lowerneck -11.5222 0.144206 -11.3822
upperneck 30.6079 4.6622 -3.00606
head 11.923 0.654373 1.49023
rclavicle 1.19271e-014 -2.38542e-015
rhumerus -38.4896 26.5502 -72.4113
rradius 114.74
rwrist 42.2589
rhand -58.7107 0.776773
rfingers 7.12502
rthumb -30.9236 -26.6392
lclavicle 1.19271e-014 -2.38542e-015
lhumerus -39.9702 -21.7556 97.8495
lradius 100.246
lwrist -47.4965
lhand -55.2021 55.0204
lfingers 7.12502
lthumb -27.5734 83.0206
rfemur -74.6957 -30.8179 -0.984299
rtibia 107.622
rfoot -26.9378 8.43085
rtoes -35.8032
lfemur -89.2734 10.1597 -10.9425
ltibia 100.955
lfoot -18.1071 -23.0131
ltoes -9.56486
1320
root 2.56753 10.9948 -4.26927 192.434 121.802 184.365
lowerback 36.0618 -1.67781 2.05351
upperback 14.5653 -0.0112342 3.33023
thorax -2.06305 0.404065 2.39025
lowerneck -11.6076 0.144935 -11.6309
upperneck 30.7362 4.66715 -2.73948
head 11.9785 0.651872 1.63416
rclavicle -4.6118e-014 4.92986e-014
rhumerus -38.2605 26.6327 -72.3742
rradius 114.708
rwrist 41.9694
rhand -59.0262 0.936623
rfingers 7.12502
rthumb -31.2243 -26.4219
lclavicle -4.6118e-014 4.92986e-014
lhumerus -39.7458 -21.9982 97.8157
lradius 100.505
lwrist -46.8804
lhand -54.4899 55.8109
lfingers 7.12502
lthumb -26.8922 83.9179
rfemur -74.8357 -30.8301 -1.18384
rtibia 107.896
rfoot -26.6662 8.83448
rtoes -35.7658
lfemur -89.3377 10.352 -10.9425
ltibia 101.354
lfoot -17.975 -23.0073
ltoes -9.15645
1321
root 2.54537 10.9349 -4.29991 191.962 121.965 184.323
lowerback 35.8769 -1.63678 1.97681
upperback 14.6629 0.00469373 3.33322
thorax -1.8965 0.410067 2.42821
lowerneck -11.7844 0.170647 -11.8846
upperneck 31.1205 4.73673 -2.41116
head 12.1513 0.670352 1.81596
rclavicle -8.18993e-014 4.77083e-014
rhumerus -38.0224 26.6487 -72.4024
rradius 114.631
rwrist 41.6405
rhand -59.1388 1.19761
rfingers 7.12502
rthumb -31.3316 -26.1401
lclavicle -8.18993e-014 4.77083e-014
lhumerus -39.4985 -22.2847 97.9143
lradius 100.719
lwrist -46.1823
lhand -53.6381 56.6743
lfingers 7.12502
lthumb -26.0768 84.9042
rfemur -74.9139 -30.9472 -1.35703
rtibia 108.186
rfoot -26.4422 9.17686
rtoes -35.884
lfemur -89.375 10.4931 -10.9478
ltibia 101.765
lfoot -17.8813 -23.0177
ltoes -8.88048
1322
root 2.52342 10.8814 -4.32736 191.351 122.034 184.252
lowerback 35.797 -1.69675 1.86613
upperback 14.7638 -0.0984408 3.40984
thorax -1.75819 0.354467 2.60027
lowerneck -11.7777 0.214761 -12.2579
upperneck 31.2649 4.86717 -2.27558
head 12.1954 0.695574 1.94776
rclavicle -2.3059e-014 2.46493e-014
rhumerus -37.6913 26.9973 -72.3592
rradius 114.576
rwrist 41.1887
rhand -59.3859 0.714916
rfingers 7.12502
rthumb -31.567 -26.5769
lclavicle -2.3059e-014 2.46493e-014
lhumerus -39.3552 -22.2488 98.1456
lradius 100.97
lwrist -45.5645
lhand -52.9551 57.7622
lfingers 7.12502
lthumb -25.4227 86.0869
rfemur -74.7169 -31.0977 -1.59369
rtibia 108.455
rfoot -26.3039 9.56221
rtoes -35.833
lfemur -89.2555 10.5674 -10.9189
ltibia 102.141
lfoot -17.8734 -23.0331
ltoes -8.96077
